<svg xmlns:xlink="http://www.w3.org/1999/xlink" width="46.386ex" height="19.509ex" style="font-size: 15px; vertical-align: -7.505ex; margin-right: -0.028ex;" viewBox="0 -5168.6 19971.6 8399.8" role="img" focusable="false" xmlns="http://www.w3.org/2000/svg">
<defs>
<path stroke-width="1" id="E1-MJMAIN-28" d="M94 250Q94 319 104 381T127 488T164 576T202 643T244 695T277 729T302 750H315H319Q333 750 333 741Q333 738 316 720T275 667T226 581T184 443T167 250T184 58T225 -81T274 -167T316 -220T333 -241Q333 -250 318 -250H315H302L274 -226Q180 -141 137 -14T94 250Z"></path>
<path stroke-width="1" id="E1-MJMAIN-22EE" d="M78 30Q78 54 95 72T138 90Q162 90 180 74T199 31Q199 6 182 -12T139 -30T96 -13T78 30ZM78 440Q78 464 95 482T138 500Q162 500 180 484T199 441Q199 416 182 398T139 380T96 397T78 440ZM78 840Q78 864 95 882T138 900Q162 900 180 884T199 841Q199 816 182 798T139 780T96 797T78 840Z"></path>
<path stroke-width="1" id="E1-MJMATHI-50" d="M287 628Q287 635 230 637Q206 637 199 638T192 648Q192 649 194 659Q200 679 203 681T397 683Q587 682 600 680Q664 669 707 631T751 530Q751 453 685 389Q616 321 507 303Q500 302 402 301H307L277 182Q247 66 247 59Q247 55 248 54T255 50T272 48T305 46H336Q342 37 342 35Q342 19 335 5Q330 0 319 0Q316 0 282 1T182 2Q120 2 87 2T51 1Q33 1 33 11Q33 13 36 25Q40 41 44 43T67 46Q94 46 127 49Q141 52 146 61Q149 65 218 339T287 628ZM645 554Q645 567 643 575T634 597T609 619T560 635Q553 636 480 637Q463 637 445 637T416 636T404 636Q391 635 386 627Q384 621 367 550T332 412T314 344Q314 342 395 342H407H430Q542 342 590 392Q617 419 631 471T645 554Z"></path>
<path stroke-width="1" id="E1-MJMAIN-31" d="M213 578L200 573Q186 568 160 563T102 556H83V602H102Q149 604 189 617T245 641T273 663Q275 666 285 666Q294 666 302 660V361L303 61Q310 54 315 52T339 48T401 46H427V0H416Q395 3 257 3Q121 3 100 0H88V46H114Q136 46 152 46T177 47T193 50T201 52T207 57T213 61V578Z"></path>
<path stroke-width="1" id="E1-MJMAIN-29" d="M60 749L64 750Q69 750 74 750H86L114 726Q208 641 251 514T294 250Q294 182 284 119T261 12T224 -76T186 -143T145 -194T113 -227T90 -246Q87 -249 86 -250H74Q66 -250 63 -250T58 -247T55 -238Q56 -237 66 -225Q221 -64 221 250T66 725Q56 737 55 738Q55 746 60 749Z"></path>
<path stroke-width="1" id="E1-MJSZ4-239B" d="M837 1154Q843 1148 843 1145Q843 1141 818 1106T753 1002T667 841T574 604T494 299Q417 -84 417 -609Q417 -641 416 -647T411 -654Q409 -655 366 -655Q299 -655 297 -654Q292 -652 292 -643T291 -583Q293 -400 304 -242T347 110T432 470T574 813T785 1136Q787 1139 790 1142T794 1147T796 1150T799 1152T802 1153T807 1154T813 1154H819H837Z"></path>
<path stroke-width="1" id="E1-MJSZ4-239D" d="M843 -635Q843 -638 837 -644H820Q801 -644 800 -643Q792 -635 785 -626Q684 -503 605 -363T473 -75T385 216T330 518T302 809T291 1093Q291 1144 291 1153T296 1164Q298 1165 366 1165Q409 1165 411 1164Q415 1163 416 1157T417 1119Q417 529 517 109T833 -617Q843 -631 843 -635Z"></path>
<path stroke-width="1" id="E1-MJSZ4-239C" d="M413 -9Q412 -9 407 -9T388 -10T354 -10Q300 -10 297 -9Q294 -8 293 -5Q291 5 291 127V300Q291 602 292 605L296 609Q298 610 366 610Q382 610 392 610T407 610T412 609Q416 609 416 592T417 473V127Q417 -9 413 -9Z"></path>
<path stroke-width="1" id="E1-MJSZ4-239E" d="M31 1143Q31 1154 49 1154H59Q72 1154 75 1152T89 1136Q190 1013 269 873T401 585T489 294T544 -8T572 -299T583 -583Q583 -634 583 -643T577 -654Q575 -655 508 -655Q465 -655 463 -654Q459 -653 458 -647T457 -609Q457 -58 371 340T100 1037Q87 1059 61 1098T31 1143Z"></path>
<path stroke-width="1" id="E1-MJSZ4-23A0" d="M56 -644H50Q31 -644 31 -635Q31 -632 37 -622Q69 -579 100 -527Q286 -228 371 170T457 1119Q457 1161 462 1164Q464 1165 520 1165Q575 1165 577 1164Q582 1162 582 1153T583 1093Q581 910 570 752T527 400T442 40T300 -303T89 -626Q78 -640 75 -642T61 -644H56Z"></path>
<path stroke-width="1" id="E1-MJSZ4-239F" d="M579 -9Q578 -9 573 -9T554 -10T520 -10Q466 -10 463 -9Q460 -8 459 -5Q457 5 457 127V300Q457 602 458 605L462 609Q464 610 532 610Q548 610 558 610T573 610T578 609Q582 609 582 592T583 473V127Q583 -9 579 -9Z"></path>
<path stroke-width="1" id="E1-MJMAIN-32" d="M109 429Q82 429 66 447T50 491Q50 562 103 614T235 666Q326 666 387 610T449 465Q449 422 429 383T381 315T301 241Q265 210 201 149L142 93L218 92Q375 92 385 97Q392 99 409 186V189H449V186Q448 183 436 95T421 3V0H50V19V31Q50 38 56 46T86 81Q115 113 136 137Q145 147 170 174T204 211T233 244T261 278T284 308T305 340T320 369T333 401T340 431T343 464Q343 527 309 573T212 619Q179 619 154 602T119 569T109 550Q109 549 114 549Q132 549 151 535T170 489Q170 464 154 447T109 429Z"></path>
<path stroke-width="1" id="E1-MJMAIN-33" d="M127 463Q100 463 85 480T69 524Q69 579 117 622T233 665Q268 665 277 664Q351 652 390 611T430 522Q430 470 396 421T302 350L299 348Q299 347 308 345T337 336T375 315Q457 262 457 175Q457 96 395 37T238 -22Q158 -22 100 21T42 130Q42 158 60 175T105 193Q133 193 151 175T169 130Q169 119 166 110T159 94T148 82T136 74T126 70T118 67L114 66Q165 21 238 21Q293 21 321 74Q338 107 338 175V195Q338 290 274 322Q259 328 213 329L171 330L168 332Q166 335 166 348Q166 366 174 366Q202 366 232 371Q266 376 294 413T322 525V533Q322 590 287 612Q265 626 240 626Q208 626 181 615T143 592T132 580H135Q138 579 143 578T153 573T165 566T175 555T183 540T186 520Q186 498 172 481T127 463Z"></path>
<path stroke-width="1" id="E1-MJMAIN-27F9" d="M1218 514Q1218 525 1234 525Q1239 525 1242 525T1247 525T1251 524T1253 523T1255 520T1257 517T1260 512Q1297 438 1358 381T1469 300T1565 263Q1582 258 1582 250T1573 239T1536 228T1478 204Q1334 134 1260 -12Q1256 -21 1253 -22T1238 -24Q1218 -24 1218 -17Q1218 -13 1223 0Q1258 69 1309 123L1319 133H70Q56 140 56 153Q56 168 72 173H1363L1373 181Q1412 211 1490 250Q1489 251 1472 259T1427 283T1373 319L1363 327H710L707 328L390 327H72Q56 332 56 347Q56 360 70 367H1319L1309 377Q1276 412 1247 458T1218 514Z"></path>
<path stroke-width="1" id="E1-MJSZ4-E150" d="M-18 -213L-24 -207V-172L-16 -158Q75 2 260 84Q334 113 415 119Q418 119 427 119T440 120Q454 120 457 117T460 98V60V25Q460 7 457 4T441 0Q308 0 193 -55T25 -205Q21 -211 18 -212T-1 -213H-18Z"></path>
<path stroke-width="1" id="E1-MJSZ4-E151" d="M-10 60Q-10 104 -10 111T-5 118Q-1 120 10 120Q96 120 190 84Q375 2 466 -158L474 -172V-207L468 -213H451H447Q437 -213 434 -213T428 -209T423 -202T414 -187T396 -163Q331 -82 224 -41T9 0Q-4 0 -7 3T-10 25V60Z"></path>
<path stroke-width="1" id="E1-MJSZ4-E153" d="M-10 60V95Q-10 113 -7 116T9 120Q151 120 250 171T396 284Q404 293 412 305T424 324T431 331Q433 333 451 333H468L474 327V292L466 278Q375 118 190 36Q95 0 8 0Q-5 0 -7 3T-10 24V60Z"></path>
<path stroke-width="1" id="E1-MJSZ4-E152" d="M-24 327L-18 333H-1Q11 333 15 333T22 329T27 322T35 308T54 284Q115 203 225 162T441 120Q454 120 457 117T460 95V60V28Q460 8 457 4T442 0Q355 0 260 36Q75 118 -16 278L-24 292V327Z"></path>
<path stroke-width="1" id="E1-MJSZ4-E154" d="M-10 0V120H410V0H-10Z"></path>
<path stroke-width="1" id="E1-MJMATHI-74" d="M26 385Q19 392 19 395Q19 399 22 411T27 425Q29 430 36 430T87 431H140L159 511Q162 522 166 540T173 566T179 586T187 603T197 615T211 624T229 626Q247 625 254 615T261 596Q261 589 252 549T232 470L222 433Q222 431 272 431H323Q330 424 330 420Q330 398 317 385H210L174 240Q135 80 135 68Q135 26 162 26Q197 26 230 60T283 144Q285 150 288 151T303 153H307Q322 153 322 145Q322 142 319 133Q314 117 301 95T267 48T216 6T155 -11Q125 -11 98 4T59 56Q57 64 57 83V101L92 241Q127 382 128 383Q128 385 77 385H26Z"></path>
<path stroke-width="1" id="E1-MJMATHI-72" d="M21 287Q22 290 23 295T28 317T38 348T53 381T73 411T99 433T132 442Q161 442 183 430T214 408T225 388Q227 382 228 382T236 389Q284 441 347 441H350Q398 441 422 400Q430 381 430 363Q430 333 417 315T391 292T366 288Q346 288 334 299T322 328Q322 376 378 392Q356 405 342 405Q286 405 239 331Q229 315 224 298T190 165Q156 25 151 16Q138 -11 108 -11Q95 -11 87 -5T76 7T74 17Q74 30 114 189T154 366Q154 405 128 405Q107 405 92 377T68 316T57 280Q55 278 41 278H27Q21 284 21 287Z"></path>
<path stroke-width="1" id="E1-MJMATHI-61" d="M33 157Q33 258 109 349T280 441Q331 441 370 392Q386 422 416 422Q429 422 439 414T449 394Q449 381 412 234T374 68Q374 43 381 35T402 26Q411 27 422 35Q443 55 463 131Q469 151 473 152Q475 153 483 153H487Q506 153 506 144Q506 138 501 117T481 63T449 13Q436 0 417 -8Q409 -10 393 -10Q359 -10 336 5T306 36L300 51Q299 52 296 50Q294 48 292 46Q233 -10 172 -10Q117 -10 75 30T33 157ZM351 328Q351 334 346 350T323 385T277 405Q242 405 210 374T160 293Q131 214 119 129Q119 126 119 118T118 106Q118 61 136 44T179 26Q217 26 254 59T298 110Q300 114 325 217T351 328Z"></path>
<path stroke-width="1" id="E1-MJMATHI-69" d="M184 600Q184 624 203 642T247 661Q265 661 277 649T290 619Q290 596 270 577T226 557Q211 557 198 567T184 600ZM21 287Q21 295 30 318T54 369T98 420T158 442Q197 442 223 419T250 357Q250 340 236 301T196 196T154 83Q149 61 149 51Q149 26 166 26Q175 26 185 29T208 43T235 78T260 137Q263 149 265 151T282 153Q302 153 302 143Q302 135 293 112T268 61T223 11T161 -11Q129 -11 102 10T74 74Q74 91 79 106T122 220Q160 321 166 341T173 380Q173 404 156 404H154Q124 404 99 371T61 287Q60 286 59 284T58 281T56 279T53 278T49 278T41 278H27Q21 284 21 287Z"></path>
<path stroke-width="1" id="E1-MJMATHI-6E" d="M21 287Q22 293 24 303T36 341T56 388T89 425T135 442Q171 442 195 424T225 390T231 369Q231 367 232 367L243 378Q304 442 382 442Q436 442 469 415T503 336T465 179T427 52Q427 26 444 26Q450 26 453 27Q482 32 505 65T540 145Q542 153 560 153Q580 153 580 145Q580 144 576 130Q568 101 554 73T508 17T439 -10Q392 -10 371 17T350 73Q350 92 386 193T423 345Q423 404 379 404H374Q288 404 229 303L222 291L189 157Q156 26 151 16Q138 -11 108 -11Q95 -11 87 -5T76 7T74 17Q74 30 112 180T152 343Q153 348 153 366Q153 405 129 405Q91 405 66 305Q60 285 60 284Q58 278 41 278H27Q21 284 21 287Z"></path>
</defs>
<g stroke="currentColor" fill="currentColor" stroke-width="0" transform="matrix(1 0 0 -1 0 0)">
<g transform="translate(0,3601)">
 <use xlink:href="#E1-MJSZ4-239B" x="0" y="-1156"></use>
<g transform="translate(0,-4880.7479935794545) scale(1,5.104333868378812)">
 <use xlink:href="#E1-MJSZ4-239C"></use>
</g>
 <use xlink:href="#E1-MJSZ4-239D" x="0" y="-6058"></use>
</g>
<g transform="translate(1042,0)">
<g transform="translate(-11,0)">
 <use xlink:href="#E1-MJMAIN-22EE" x="408" y="2300"></use>
<g transform="translate(0,900)">
 <use xlink:href="#E1-MJMATHI-50" x="0" y="0"></use>
 <use transform="scale(0.707)" xlink:href="#E1-MJMAIN-31" x="908" y="-213"></use>
</g>
 <use xlink:href="#E1-MJMAIN-22EE" x="408" y="-1001"></use>
 <use xlink:href="#E1-MJMAIN-22EE" x="408" y="-2902"></use>
</g>
</g>
<g transform="translate(2295,3601)">
 <use xlink:href="#E1-MJSZ4-239E" x="0" y="-1155"></use>
<g transform="translate(0,-4880.728731942216) scale(1,5.10593900481541)">
 <use xlink:href="#E1-MJSZ4-239F"></use>
</g>
 <use xlink:href="#E1-MJSZ4-23A0" x="0" y="-6058"></use>
</g>
<g transform="translate(3337,0)">
<g transform="translate(0,3601)">
 <use xlink:href="#E1-MJSZ4-239B" x="0" y="-1156"></use>
<g transform="translate(0,-4880.7479935794545) scale(1,5.104333868378812)">
 <use xlink:href="#E1-MJSZ4-239C"></use>
</g>
 <use xlink:href="#E1-MJSZ4-239D" x="0" y="-6058"></use>
</g>
<g transform="translate(1042,0)">
<g transform="translate(-11,0)">
 <use xlink:href="#E1-MJMAIN-22EE" x="408" y="2300"></use>
<g transform="translate(0,900)">
 <use xlink:href="#E1-MJMATHI-50" x="0" y="0"></use>
 <use transform="scale(0.707)" xlink:href="#E1-MJMAIN-32" x="908" y="-213"></use>
</g>
 <use xlink:href="#E1-MJMAIN-22EE" x="408" y="-1001"></use>
 <use xlink:href="#E1-MJMAIN-22EE" x="408" y="-2902"></use>
</g>
</g>
<g transform="translate(2295,3601)">
 <use xlink:href="#E1-MJSZ4-239E" x="0" y="-1155"></use>
<g transform="translate(0,-4880.728731942216) scale(1,5.10593900481541)">
 <use xlink:href="#E1-MJSZ4-239F"></use>
</g>
 <use xlink:href="#E1-MJSZ4-23A0" x="0" y="-6058"></use>
</g>
</g>
<g transform="translate(6675,0)">
<g transform="translate(0,3601)">
 <use xlink:href="#E1-MJSZ4-239B" x="0" y="-1156"></use>
<g transform="translate(0,-4880.7479935794545) scale(1,5.104333868378812)">
 <use xlink:href="#E1-MJSZ4-239C"></use>
</g>
 <use xlink:href="#E1-MJSZ4-239D" x="0" y="-6058"></use>
</g>
<g transform="translate(1042,0)">
<g transform="translate(-11,0)">
 <use xlink:href="#E1-MJMAIN-22EE" x="408" y="2300"></use>
<g transform="translate(0,900)">
 <use xlink:href="#E1-MJMATHI-50" x="0" y="0"></use>
 <use transform="scale(0.707)" xlink:href="#E1-MJMAIN-33" x="908" y="-213"></use>
</g>
 <use xlink:href="#E1-MJMAIN-22EE" x="408" y="-1001"></use>
 <use xlink:href="#E1-MJMAIN-22EE" x="408" y="-2902"></use>
</g>
</g>
<g transform="translate(2295,3601)">
 <use xlink:href="#E1-MJSZ4-239E" x="0" y="-1155"></use>
<g transform="translate(0,-4880.728731942216) scale(1,5.10593900481541)">
 <use xlink:href="#E1-MJSZ4-239F"></use>
</g>
 <use xlink:href="#E1-MJSZ4-23A0" x="0" y="-6058"></use>
</g>
</g>
 <use xlink:href="#E1-MJMAIN-27F9" x="10401" y="0"></use>
<g transform="translate(12595,0)">
<g transform="translate(0,3601)">
 <use xlink:href="#E1-MJSZ4-239B" x="0" y="-1156"></use>
<g transform="translate(0,-4880.7479935794545) scale(1,5.104333868378812)">
 <use xlink:href="#E1-MJSZ4-239C"></use>
</g>
 <use xlink:href="#E1-MJSZ4-239D" x="0" y="-6058"></use>
</g>
<g transform="translate(1042,0)">
<g transform="translate(-11,0)">
 <use xlink:href="#E1-MJMAIN-22EE" x="408" y="2300"></use>
<g transform="translate(0,900)">
 <use xlink:href="#E1-MJMATHI-50" x="0" y="0"></use>
 <use transform="scale(0.707)" xlink:href="#E1-MJMAIN-31" x="908" y="-213"></use>
</g>
 <use xlink:href="#E1-MJMAIN-22EE" x="408" y="-1001"></use>
 <use xlink:href="#E1-MJMAIN-22EE" x="408" y="-2902"></use>
</g>
<g transform="translate(2085,0)">
 <use xlink:href="#E1-MJMAIN-22EE" x="408" y="2300"></use>
<g transform="translate(0,900)">
 <use xlink:href="#E1-MJMATHI-50" x="0" y="0"></use>
 <use transform="scale(0.707)" xlink:href="#E1-MJMAIN-32" x="908" y="-213"></use>
</g>
 <use xlink:href="#E1-MJMAIN-22EE" x="408" y="-1001"></use>
 <use xlink:href="#E1-MJMAIN-22EE" x="408" y="-2902"></use>
</g>
<g transform="translate(4182,0)">
 <use xlink:href="#E1-MJMAIN-22EE" x="408" y="2300"></use>
<g transform="translate(0,900)">
 <use xlink:href="#E1-MJMATHI-50" x="0" y="0"></use>
 <use transform="scale(0.707)" xlink:href="#E1-MJMAIN-33" x="908" y="-213"></use>
</g>
 <use xlink:href="#E1-MJMAIN-22EE" x="408" y="-1001"></use>
 <use xlink:href="#E1-MJMAIN-22EE" x="408" y="-2902"></use>
</g>
</g>
<g transform="translate(6488,3601)">
 <use xlink:href="#E1-MJSZ4-239E" x="0" y="-1155"></use>
<g transform="translate(0,-4880.728731942216) scale(1,5.10593900481541)">
 <use xlink:href="#E1-MJSZ4-239F"></use>
</g>
 <use xlink:href="#E1-MJSZ4-23A0" x="0" y="-6058"></use>
</g>
<g transform="translate(12,3923)">
 <use xlink:href="#E1-MJSZ4-E150" x="23" y="0"></use>
<g transform="translate(546.1432228836095,0) scale(6.541391882485205,1)">
 <use xlink:href="#E1-MJSZ4-E154"></use>
</g>
<g transform="translate(3231,0)">
 <use xlink:href="#E1-MJSZ4-E153"></use>
 <use xlink:href="#E1-MJSZ4-E152" x="450" y="0"></use>
</g>
<g transform="translate(4194.527813527395,0) scale(6.541391882485205,1)">
 <use xlink:href="#E1-MJSZ4-E154"></use>
</g>
 <use xlink:href="#E1-MJSZ4-E151" x="6889" y="0"></use>
</g>
<g transform="translate(2695,4457)">
 <use transform="scale(0.707)" xlink:href="#E1-MJMATHI-74" x="0" y="0"></use>
 <use transform="scale(0.707)" xlink:href="#E1-MJMATHI-72" x="361" y="0"></use>
 <use transform="scale(0.707)" xlink:href="#E1-MJMATHI-61" x="812" y="0"></use>
 <use transform="scale(0.707)" xlink:href="#E1-MJMATHI-69" x="1342" y="0"></use>
 <use transform="scale(0.707)" xlink:href="#E1-MJMATHI-6E" x="1688" y="0"></use>
 <use transform="scale(0.707)" xlink:href="#E1-MJMAIN-32" x="2288" y="0"></use>
</g>
</g>
</g>
</svg>