<svg xmlns:xlink="http://www.w3.org/1999/xlink" width="14.982ex" height="16.176ex" style="font-size: 15px; vertical-align: -7.505ex;" viewBox="0 -3733.5 6450.6 6964.6" role="img" focusable="false" xmlns="http://www.w3.org/2000/svg">
<defs>
<path stroke-width="1" id="E1-MJMAIN-28" d="M94 250Q94 319 104 381T127 488T164 576T202 643T244 695T277 729T302 750H315H319Q333 750 333 741Q333 738 316 720T275 667T226 581T184 443T167 250T184 58T225 -81T274 -167T316 -220T333 -241Q333 -250 318 -250H315H302L274 -226Q180 -141 137 -14T94 250Z"></path>
<path stroke-width="1" id="E1-MJMAIN-22EE" d="M78 30Q78 54 95 72T138 90Q162 90 180 74T199 31Q199 6 182 -12T139 -30T96 -13T78 30ZM78 440Q78 464 95 482T138 500Q162 500 180 484T199 441Q199 416 182 398T139 380T96 397T78 440ZM78 840Q78 864 95 882T138 900Q162 900 180 884T199 841Q199 816 182 798T139 780T96 797T78 840Z"></path>
<path stroke-width="1" id="E1-MJMATHI-50" d="M287 628Q287 635 230 637Q206 637 199 638T192 648Q192 649 194 659Q200 679 203 681T397 683Q587 682 600 680Q664 669 707 631T751 530Q751 453 685 389Q616 321 507 303Q500 302 402 301H307L277 182Q247 66 247 59Q247 55 248 54T255 50T272 48T305 46H336Q342 37 342 35Q342 19 335 5Q330 0 319 0Q316 0 282 1T182 2Q120 2 87 2T51 1Q33 1 33 11Q33 13 36 25Q40 41 44 43T67 46Q94 46 127 49Q141 52 146 61Q149 65 218 339T287 628ZM645 554Q645 567 643 575T634 597T609 619T560 635Q553 636 480 637Q463 637 445 637T416 636T404 636Q391 635 386 627Q384 621 367 550T332 412T314 344Q314 342 395 342H407H430Q542 342 590 392Q617 419 631 471T645 554Z"></path>
<path stroke-width="1" id="E1-MJMAIN-31" d="M213 578L200 573Q186 568 160 563T102 556H83V602H102Q149 604 189 617T245 641T273 663Q275 666 285 666Q294 666 302 660V361L303 61Q310 54 315 52T339 48T401 46H427V0H416Q395 3 257 3Q121 3 100 0H88V46H114Q136 46 152 46T177 47T193 50T201 52T207 57T213 61V578Z"></path>
<path stroke-width="1" id="E1-MJMAIN-29" d="M60 749L64 750Q69 750 74 750H86L114 726Q208 641 251 514T294 250Q294 182 284 119T261 12T224 -76T186 -143T145 -194T113 -227T90 -246Q87 -249 86 -250H74Q66 -250 63 -250T58 -247T55 -238Q56 -237 66 -225Q221 -64 221 250T66 725Q56 737 55 738Q55 746 60 749Z"></path>
<path stroke-width="1" id="E1-MJSZ4-239B" d="M837 1154Q843 1148 843 1145Q843 1141 818 1106T753 1002T667 841T574 604T494 299Q417 -84 417 -609Q417 -641 416 -647T411 -654Q409 -655 366 -655Q299 -655 297 -654Q292 -652 292 -643T291 -583Q293 -400 304 -242T347 110T432 470T574 813T785 1136Q787 1139 790 1142T794 1147T796 1150T799 1152T802 1153T807 1154T813 1154H819H837Z"></path>
<path stroke-width="1" id="E1-MJSZ4-239D" d="M843 -635Q843 -638 837 -644H820Q801 -644 800 -643Q792 -635 785 -626Q684 -503 605 -363T473 -75T385 216T330 518T302 809T291 1093Q291 1144 291 1153T296 1164Q298 1165 366 1165Q409 1165 411 1164Q415 1163 416 1157T417 1119Q417 529 517 109T833 -617Q843 -631 843 -635Z"></path>
<path stroke-width="1" id="E1-MJSZ4-239C" d="M413 -9Q412 -9 407 -9T388 -10T354 -10Q300 -10 297 -9Q294 -8 293 -5Q291 5 291 127V300Q291 602 292 605L296 609Q298 610 366 610Q382 610 392 610T407 610T412 609Q416 609 416 592T417 473V127Q417 -9 413 -9Z"></path>
<path stroke-width="1" id="E1-MJSZ4-239E" d="M31 1143Q31 1154 49 1154H59Q72 1154 75 1152T89 1136Q190 1013 269 873T401 585T489 294T544 -8T572 -299T583 -583Q583 -634 583 -643T577 -654Q575 -655 508 -655Q465 -655 463 -654Q459 -653 458 -647T457 -609Q457 -58 371 340T100 1037Q87 1059 61 1098T31 1143Z"></path>
<path stroke-width="1" id="E1-MJSZ4-23A0" d="M56 -644H50Q31 -644 31 -635Q31 -632 37 -622Q69 -579 100 -527Q286 -228 371 170T457 1119Q457 1161 462 1164Q464 1165 520 1165Q575 1165 577 1164Q582 1162 582 1153T583 1093Q581 910 570 752T527 400T442 40T300 -303T89 -626Q78 -640 75 -642T61 -644H56Z"></path>
<path stroke-width="1" id="E1-MJSZ4-239F" d="M579 -9Q578 -9 573 -9T554 -10T520 -10Q466 -10 463 -9Q460 -8 459 -5Q457 5 457 127V300Q457 602 458 605L462 609Q464 610 532 610Q548 610 558 610T573 610T578 609Q582 609 582 592T583 473V127Q583 -9 579 -9Z"></path>
<path stroke-width="1" id="E1-MJMATHI-54" d="M40 437Q21 437 21 445Q21 450 37 501T71 602L88 651Q93 669 101 677H569H659Q691 677 697 676T704 667Q704 661 687 553T668 444Q668 437 649 437Q640 437 637 437T631 442L629 445Q629 451 635 490T641 551Q641 586 628 604T573 629Q568 630 515 631Q469 631 457 630T439 622Q438 621 368 343T298 60Q298 48 386 46Q418 46 427 45T436 36Q436 31 433 22Q429 4 424 1L422 0Q419 0 415 0Q410 0 363 1T228 2Q99 2 64 0H49Q43 6 43 9T45 27Q49 40 55 46H83H94Q174 46 189 55Q190 56 191 56Q196 59 201 76T241 233Q258 301 269 344Q339 619 339 625Q339 630 310 630H279Q212 630 191 624Q146 614 121 583T67 467Q60 445 57 441T43 437H40Z"></path>
</defs>
<g stroke="currentColor" fill="currentColor" stroke-width="0" transform="matrix(1 0 0 -1 0 0)">
<g transform="translate(0,3601)">
 <use xlink:href="#E1-MJSZ4-239B" x="0" y="-1156"></use>
<g transform="translate(0,-4880.7479935794545) scale(1,5.104333868378812)">
 <use xlink:href="#E1-MJSZ4-239C"></use>
</g>
 <use xlink:href="#E1-MJSZ4-239D" x="0" y="-6058"></use>
</g>
<g transform="translate(1042,0)">
<g transform="translate(-11,0)">
 <use xlink:href="#E1-MJMAIN-22EE" x="408" y="2300"></use>
<g transform="translate(0,900)">
 <use xlink:href="#E1-MJMATHI-50" x="0" y="0"></use>
 <use transform="scale(0.707)" xlink:href="#E1-MJMAIN-31" x="908" y="-213"></use>
</g>
 <use xlink:href="#E1-MJMAIN-22EE" x="408" y="-1001"></use>
 <use xlink:href="#E1-MJMAIN-22EE" x="408" y="-2902"></use>
</g>
</g>
<g transform="translate(2295,3601)">
 <use xlink:href="#E1-MJSZ4-239E" x="0" y="-1155"></use>
<g transform="translate(0,-4880.728731942216) scale(1,5.10593900481541)">
 <use xlink:href="#E1-MJSZ4-239F"></use>
</g>
 <use xlink:href="#E1-MJSZ4-23A0" x="0" y="-6058"></use>
</g>
<g transform="translate(3337,0)">
<g transform="translate(0,3601)">
 <use xlink:href="#E1-MJSZ4-239B" x="0" y="-1156"></use>
<g transform="translate(0,-4880.7479935794545) scale(1,5.104333868378812)">
 <use xlink:href="#E1-MJSZ4-239C"></use>
</g>
 <use xlink:href="#E1-MJSZ4-239D" x="0" y="-6058"></use>
</g>
<g transform="translate(1042,0)">
<g transform="translate(-11,0)">
 <use xlink:href="#E1-MJMAIN-22EE" x="379" y="2300"></use>
<g transform="translate(0,900)">
 <use xlink:href="#E1-MJMATHI-54" x="0" y="0"></use>
 <use transform="scale(0.707)" xlink:href="#E1-MJMAIN-31" x="826" y="-213"></use>
</g>
 <use xlink:href="#E1-MJMAIN-22EE" x="379" y="-1001"></use>
 <use xlink:href="#E1-MJMAIN-22EE" x="379" y="-2902"></use>
</g>
</g>
<g transform="translate(2237,3601)">
 <use xlink:href="#E1-MJSZ4-239E" x="0" y="-1155"></use>
<g transform="translate(0,-4880.728731942216) scale(1,5.10593900481541)">
 <use xlink:href="#E1-MJSZ4-239F"></use>
</g>
 <use xlink:href="#E1-MJSZ4-23A0" x="0" y="-6058"></use>
</g>
</g>
</g>
</svg>